<svg width="56" height="85" viewBox="0 0 56 85" fill="none" xmlns="http://www.w3.org/2000/svg">
<path d="M6.3925 63V21.08H19.6405C22.7125 21.08 25.4218 21.4853 27.7685 22.296C30.1578 23.064 32.0138 24.3867 33.3365 26.264C34.6592 28.0987 35.3205 30.5733 35.3205 33.688C35.3205 36.7173 34.6378 39.2133 33.2725 41.176C31.9498 43.1387 30.0938 44.6107 27.7045 45.592C25.3578 46.5307 22.6698 47 19.6405 47H12.7925V63H6.3925ZM12.7925 41.816H19.0005C22.4138 41.816 24.9312 41.1547 26.5525 39.832C28.1738 38.5093 28.9845 36.4613 28.9845 33.688C28.9845 30.872 28.1525 28.9307 26.4885 27.864C24.8245 26.7547 22.3285 26.2 19.0005 26.2H12.7925V41.816Z" fill="#9A0E0E"/>
<path d="M6.3925 63H5.8925V63.5H6.3925V63ZM6.3925 21.08V20.58H5.8925V21.08H6.3925ZM27.7685 22.296L27.6052 22.7687L27.6155 22.772L27.7685 22.296ZM33.3365 26.264L32.9277 26.552L32.9309 26.5564L33.3365 26.264ZM33.2725 41.176L32.862 40.8904L32.8579 40.8966L33.2725 41.176ZM27.7045 45.592L27.8902 46.0563L27.8945 46.0545L27.7045 45.592ZM12.7925 47V46.5H12.2925V47H12.7925ZM12.7925 63V63.5H13.2925V63H12.7925ZM12.7925 41.816H12.2925V42.316H12.7925V41.816ZM26.5525 39.832L26.8686 40.2194L26.5525 39.832ZM26.4885 27.864L26.2111 28.2801L26.2187 28.2849L26.4885 27.864ZM12.7925 26.2V25.7H12.2925V26.2H12.7925ZM6.8925 63V21.08H5.8925V63H6.8925ZM6.3925 21.58H19.6405V20.58H6.3925V21.58ZM19.6405 21.58C22.6696 21.58 25.3219 21.9798 27.6052 22.7686L27.9318 21.8234C25.5218 20.9909 22.7554 20.58 19.6405 20.58V21.58ZM27.6155 22.772C29.9116 23.51 31.6735 24.7718 32.9278 26.552L33.7452 25.976C32.3541 24.0016 30.4041 22.618 27.9215 21.82L27.6155 22.772ZM32.9309 26.5564C34.1729 28.2792 34.8205 30.6396 34.8205 33.688H35.8205C35.8205 30.507 35.1454 27.9182 33.7421 25.9716L32.9309 26.5564ZM34.8205 33.688C34.8205 36.6426 34.1552 39.0315 32.862 40.8905L33.683 41.4615C35.1204 39.3951 35.8205 36.7921 35.8205 33.688H34.8205ZM32.8579 40.8966C31.5954 42.7699 29.8213 44.1821 27.5145 45.1295L27.8945 46.0545C30.3664 45.0392 32.3043 43.5074 33.6871 41.4554L32.8579 40.8966ZM27.5188 45.1278C25.2417 46.0386 22.6186 46.5 19.6405 46.5V47.5C22.7211 47.5 25.474 47.0227 27.8902 46.0562L27.5188 45.1278ZM19.6405 46.5H12.7925V47.5H19.6405V46.5ZM12.2925 47V63H13.2925V47H12.2925ZM12.7925 62.5H6.3925V63.5H12.7925V62.5ZM12.7925 42.316H19.0005V41.316H12.7925V42.316ZM19.0005 42.316C22.4615 42.316 25.1169 41.6484 26.8686 40.2194L26.2364 39.4446C24.7454 40.6609 22.3661 41.316 19.0005 41.316V42.316ZM26.8686 40.2194C28.6416 38.773 29.4845 36.5592 29.4845 33.688H28.4845C28.4845 36.3635 27.7061 38.2456 26.2364 39.4446L26.8686 40.2194ZM29.4845 33.688C29.4845 30.7804 28.6214 28.6373 26.7583 27.4431L26.2187 28.2849C27.6836 29.224 28.4845 30.9636 28.4845 33.688H29.4845ZM26.7659 27.448C24.9815 26.2584 22.3683 25.7 19.0005 25.7V26.7C22.2887 26.7 24.6675 27.2509 26.2112 28.28L26.7659 27.448ZM19.0005 25.7H12.7925V26.7H19.0005V25.7ZM12.2925 26.2V41.816H13.2925V26.2H12.2925Z" fill="black"/>
<path d="M49.6075 22L49.6075 63.92H36.3595C33.2875 63.92 30.5782 63.5147 28.2315 62.704C25.8422 61.936 23.9862 60.6133 22.6635 58.736C21.3408 56.9013 20.6795 54.4267 20.6795 51.312C20.6795 48.2827 21.3622 45.7867 22.7275 43.824C24.0502 41.8613 25.9062 40.3893 28.2955 39.408C30.6422 38.4693 33.3302 38 36.3595 38H43.2075V22H49.6075ZM43.2075 43.184H36.9995C33.5862 43.184 31.0688 43.8453 29.4475 45.168C27.8262 46.4907 27.0155 48.5387 27.0155 51.312C27.0155 54.128 27.8475 56.0693 29.5115 57.136C31.1755 58.2453 33.6715 58.8 36.9995 58.8H43.2075L43.2075 43.184Z" fill="#9A0E0E"/>
<path d="M49.6075 22H50.1075V21.5H49.6075V22ZM49.6075 63.92V64.42H50.1075V63.92H49.6075ZM28.2315 62.704L28.3948 62.2313L28.3845 62.228L28.2315 62.704ZM22.6635 58.736L23.0723 58.448L23.0691 58.4436L22.6635 58.736ZM22.7275 43.824L23.138 44.1096L23.1421 44.1034L22.7275 43.824ZM28.2955 39.408L28.1098 38.9437L28.1055 38.9455L28.2955 39.408ZM43.2075 38V38.5H43.7075V38H43.2075ZM43.2075 22V21.5H42.7075V22H43.2075ZM43.2075 43.184H43.7075V42.684H43.2075V43.184ZM29.4475 45.168L29.1314 44.7806L29.4475 45.168ZM29.5115 57.136L29.7889 56.7199L29.7813 56.7151L29.5115 57.136ZM43.2075 58.8V59.3H43.7075V58.8H43.2075ZM49.1075 22L49.1075 63.92H50.1075L50.1075 22H49.1075ZM49.6075 63.42H36.3595V64.42H49.6075V63.42ZM36.3595 63.42C33.3304 63.42 30.6781 63.0202 28.3948 62.2314L28.0682 63.1766C30.4782 64.0091 33.2446 64.42 36.3595 64.42V63.42ZM28.3845 62.228C26.0884 61.49 24.3265 60.2282 23.0722 58.448L22.2548 59.024C23.6459 60.9984 25.5959 62.382 28.0785 63.18L28.3845 62.228ZM23.0691 58.4436C21.8271 56.7208 21.1795 54.3604 21.1795 51.312H20.1795C20.1795 54.493 20.8546 57.0818 22.2579 59.0284L23.0691 58.4436ZM21.1795 51.312C21.1795 48.3574 21.8448 45.9685 23.138 44.1095L22.317 43.5385C20.8796 45.6049 20.1795 48.2079 20.1795 51.312H21.1795ZM23.1421 44.1034C24.4046 42.2301 26.1787 40.8179 28.4855 39.8705L28.1055 38.9455C25.6336 39.9608 23.6957 41.4926 22.3129 43.5446L23.1421 44.1034ZM28.4812 39.8722C30.7583 38.9614 33.3814 38.5 36.3595 38.5V37.5C33.2789 37.5 30.526 37.9773 28.1098 38.9438L28.4812 39.8722ZM36.3595 38.5H43.2075V37.5H36.3595V38.5ZM43.7075 38V22H42.7075V38H43.7075ZM43.2075 22.5H49.6075V21.5H43.2075V22.5ZM43.2075 42.684H36.9995V43.684H43.2075V42.684ZM36.9995 42.684C33.5385 42.684 30.8831 43.3516 29.1314 44.7806L29.7636 45.5554C31.2546 44.3391 33.6339 43.684 36.9995 43.684V42.684ZM29.1314 44.7806C27.3584 46.227 26.5155 48.4408 26.5155 51.312H27.5155C27.5155 48.6365 28.2939 46.7544 29.7636 45.5554L29.1314 44.7806ZM26.5155 51.312C26.5155 54.2196 27.3786 56.3627 29.2417 57.5569L29.7813 56.7151C28.3164 55.776 27.5155 54.0364 27.5155 51.312H26.5155ZM29.2341 57.552C31.0185 58.7416 33.6317 59.3 36.9995 59.3V58.3C33.7113 58.3 31.3325 57.7491 29.7888 56.72L29.2341 57.552ZM36.9995 59.3H43.2075V58.3H36.9995V59.3ZM43.7075 58.8L43.7075 43.184H42.7075L42.7075 58.8H43.7075Z" fill="black"/>
</svg>
