<svg width="85" height="127" viewBox="0 0 85 127" fill="none" xmlns="http://www.w3.org/2000/svg">
<path d="M9.33875 95V32.12H29.2108C33.8188 32.12 37.8828 32.728 41.4028 33.944C44.9868 35.096 47.7708 37.08 49.7548 39.896C51.7388 42.648 52.7308 46.36 52.7308 51.032C52.7308 55.576 51.7068 59.32 49.6588 62.264C47.6748 65.208 44.8908 67.416 41.3068 68.888C37.7868 70.296 33.7548 71 29.2108 71H18.9388V95H9.33875ZM18.9388 63.224H28.2508C33.3708 63.224 37.1468 62.232 39.5788 60.248C42.0108 58.264 43.2268 55.192 43.2268 51.032C43.2268 46.808 41.9788 43.896 39.4828 42.296C36.9868 40.632 33.2428 39.8 28.2508 39.8H18.9388V63.224Z" fill="#9A0E0E"/>
<path d="M9.33875 95H8.83875V95.5H9.33875V95ZM9.33875 32.12V31.62H8.83875V32.12H9.33875ZM41.4028 33.944L41.2395 34.4167L41.2497 34.42L41.4028 33.944ZM49.7548 39.896L49.346 40.184L49.3492 40.1884L49.7548 39.896ZM49.6588 62.264L49.2483 61.9784L49.2441 61.9846L49.6588 62.264ZM41.3068 68.888L41.4925 69.3523L41.4967 69.3505L41.3068 68.888ZM18.9388 71V70.5H18.4388V71H18.9388ZM18.9388 95V95.5H19.4388V95H18.9388ZM18.9388 63.224H18.4388V63.724H18.9388V63.224ZM39.5788 60.248L39.8948 60.6354L39.8948 60.6354L39.5788 60.248ZM39.4828 42.296L39.2054 42.7121L39.2129 42.7169L39.4828 42.296ZM18.9388 39.8V39.3H18.4388V39.8H18.9388ZM9.83875 95V32.12H8.83875V95H9.83875ZM9.33875 32.62H29.2108V31.62H9.33875V32.62ZM29.2108 32.62C33.7759 32.62 37.7828 33.2225 41.2395 34.4166L41.566 33.4714C37.9827 32.2335 33.8616 31.62 29.2108 31.62V32.62ZM41.2497 34.42C44.7405 35.542 47.4304 37.4651 49.346 40.184L50.1635 39.608C48.1111 36.6949 45.233 34.65 41.5558 33.468L41.2497 34.42ZM49.3492 40.1884C51.2525 42.8285 52.2308 46.4263 52.2308 51.032H53.2308C53.2308 46.2937 52.225 42.4675 50.1603 39.6036L49.3492 40.1884ZM52.2308 51.032C52.2308 55.5012 51.2241 59.1382 49.2483 61.9785L50.0692 62.5495C52.1894 59.5018 53.2308 55.6508 53.2308 51.032H52.2308ZM49.2441 61.9846C47.3203 64.8392 44.6182 66.9874 41.1168 68.4255L41.4967 69.3505C45.1633 67.8446 48.0292 65.5768 50.0734 62.5434L49.2441 61.9846ZM41.1211 68.4238C37.6706 69.8039 33.7035 70.5 29.2108 70.5V71.5C33.806 71.5 37.9029 70.788 41.4924 69.3522L41.1211 68.4238ZM29.2108 70.5H18.9388V71.5H29.2108V70.5ZM18.4388 71V95H19.4388V71H18.4388ZM18.9388 94.5H9.33875V95.5H18.9388V94.5ZM18.9388 63.724H28.2508V62.724H18.9388V63.724ZM28.2508 63.724C33.4185 63.724 37.3325 62.7258 39.8948 60.6354L39.2627 59.8606C36.961 61.7382 33.323 62.724 28.2508 62.724V63.724ZM39.8948 60.6354C42.4785 58.5277 43.7268 55.2899 43.7268 51.032H42.7268C42.7268 55.0941 41.543 58.0003 39.2627 59.8606L39.8948 60.6354ZM43.7268 51.032C43.7268 46.7164 42.4477 43.6027 39.7526 41.8751L39.2129 42.7169C41.5098 44.1893 42.7268 46.8996 42.7268 51.032H43.7268ZM39.7601 41.88C37.1438 40.1358 33.2825 39.3 28.2508 39.3V40.3C33.203 40.3 36.8297 41.1282 39.2054 42.712L39.7601 41.88ZM28.2508 39.3H18.9388V40.3H28.2508V39.3ZM18.4388 39.8V63.224H19.4388V39.8H18.4388Z" fill="black"/>
<path d="M75.6612 32L75.6612 94.88H55.7892C51.1812 94.88 47.1172 94.272 43.5972 93.056C40.0132 91.904 37.2292 89.92 35.2452 87.104C33.2612 84.352 32.2692 80.64 32.2692 75.968C32.2692 71.424 33.2932 67.68 35.3412 64.736C37.3252 61.792 40.1092 59.584 43.6932 58.112C47.2132 56.704 51.2452 56 55.7892 56H66.0612V32H75.6612ZM66.0612 63.776L56.7492 63.776C51.6292 63.776 47.8532 64.768 45.4212 66.752C42.9892 68.736 41.7732 71.808 41.7732 75.968C41.7732 80.192 43.0212 83.104 45.5172 84.704C48.0132 86.368 51.7572 87.2 56.7492 87.2H66.0612L66.0612 63.776Z" fill="#9A0E0E"/>
<path d="M75.6612 32H76.1612V31.5H75.6612V32ZM75.6612 94.88V95.38H76.1612V94.88H75.6612ZM43.5972 93.056L43.7605 92.5833L43.7503 92.58L43.5972 93.056ZM35.2452 87.104L35.654 86.816L35.6508 86.8116L35.2452 87.104ZM35.3412 64.736L35.7517 65.0216L35.7559 65.0154L35.3412 64.736ZM43.6932 58.112L43.5075 57.6477L43.5033 57.6495L43.6932 58.112ZM66.0612 56V56.5H66.5612V56H66.0612ZM66.0612 32V31.5H65.5612V32H66.0612ZM66.0612 63.776H66.5612V63.276H66.0612V63.776ZM45.4212 66.752L45.1052 66.3646L45.1052 66.3646L45.4212 66.752ZM45.5172 84.704L45.7946 84.2879L45.7871 84.2831L45.5172 84.704ZM66.0612 87.2V87.7H66.5612V87.2H66.0612ZM75.1612 32L75.1612 94.88H76.1612L76.1612 32H75.1612ZM75.6612 94.38H55.7892V95.38H75.6612V94.38ZM55.7892 94.38C51.2241 94.38 47.2172 93.7775 43.7605 92.5834L43.434 93.5286C47.0173 94.7665 51.1384 95.38 55.7892 95.38V94.38ZM43.7503 92.58C40.2595 91.458 37.5696 89.5349 35.654 86.816L34.8365 87.392C36.8889 90.3051 39.767 92.35 43.4442 93.532L43.7503 92.58ZM35.6508 86.8116C33.7475 84.1715 32.7692 80.5737 32.7692 75.968H31.7692C31.7692 80.7063 32.775 84.5325 34.8397 87.3964L35.6508 86.8116ZM32.7692 75.968C32.7692 71.4988 33.7759 67.8618 35.7517 65.0215L34.9308 64.4505C32.8106 67.4982 31.7692 71.3492 31.7692 75.968H32.7692ZM35.7559 65.0154C37.6797 62.1608 40.3818 60.0126 43.8832 58.5745L43.5033 57.6495C39.8367 59.1554 36.9708 61.4232 34.9266 64.4566L35.7559 65.0154ZM43.8789 58.5762C47.3294 57.1961 51.2965 56.5 55.7892 56.5V55.5C51.194 55.5 47.0971 56.212 43.5076 57.6478L43.8789 58.5762ZM55.7892 56.5H66.0612V55.5H55.7892V56.5ZM66.5612 56V32H65.5612V56H66.5612ZM66.0612 32.5H75.6612V31.5H66.0612V32.5ZM66.0612 63.276L56.7492 63.276V64.276H66.0612V63.276ZM56.7492 63.276C51.5815 63.276 47.6675 64.2742 45.1052 66.3646L45.7373 67.1394C48.039 65.2618 51.677 64.276 56.7492 64.276V63.276ZM45.1052 66.3646C42.5215 68.4723 41.2732 71.7101 41.2732 75.968H42.2732C42.2732 71.9059 43.457 68.9997 45.7373 67.1394L45.1052 66.3646ZM41.2732 75.968C41.2732 80.2836 42.5523 83.3973 45.2474 85.1249L45.7871 84.2831C43.4902 82.8107 42.2732 80.1004 42.2732 75.968H41.2732ZM45.2399 85.12C47.8562 86.8642 51.7175 87.7 56.7492 87.7V86.7C51.797 86.7 48.1703 85.8718 45.7946 84.288L45.2399 85.12ZM56.7492 87.7H66.0612V86.7H56.7492V87.7ZM66.5612 87.2L66.5612 63.776H65.5612L65.5612 87.2H66.5612Z" fill="black"/>
</svg>
